Coordinates
version=1
nRows=7
nColumns=40
inDegrees=yes

Units are S.I. units (second, meters, Newtons, ...)
Angles are in degrees.

endheader
time	pelvis_tilt	pelvis_list	pelvis_rotation	pelvis_tx	pelvis_ty	pelvis_tz	hip_flexion_r	hip_adduction_r	hip_rotation_r	knee_angle_r	knee_angle_r_beta	ankle_angle_r	subtalar_angle_r	mtp_angle_r	hip_flexion_l	hip_adduction_l	hip_rotation_l	knee_angle_l	knee_angle_l_beta	ankle_angle_l	subtalar_angle_l	mtp_angle_l	lumbar_extension	lumbar_bending	lumbar_rotation	arm_flex_r	arm_add_r	arm_rot_r	elbow_flex_r	pro_sup_r	wrist_flex_r	wrist_dev_r	arm_flex_l	arm_add_l	arm_rot_l	elbow_flex_l	pro_sup_l	wrist_flex_l	wrist_dev_l
     36.45000000	     -3.19709052	     -4.42894824	     -0.85544200	      0.94709243	      0.92398083	      0.45554680	     16.38727858	     -6.81560995	     -8.95326947	     57.35503947	     57.35503947	      7.48945536	    -18.20716645	      6.14979763	     17.42784157	     -2.87478440	     -3.12225513	     28.73928915	     28.73928915	     17.14453798	    -14.79693253	      5.78242272	     -9.77406222	      4.83434929	      1.98575373	     30.80177431	    -14.63048913	    -13.63576202	     39.71500183	     44.49638112	      0.00000000	      0.00000000	     10.18494870	    -16.03794647	      7.51428277	     46.70420735	     45.23039999	      0.00000000	      0.00000000
     36.46935714	     -2.82050722	     -4.34180845	     -1.36580784	      0.94685642	      0.92276573	      0.45346373	     17.86306725	     -7.00993403	     -8.39090587	     59.31409922	     59.31409922	      7.98711333	    -18.36776155	      6.43346460	     16.91436140	     -2.66219897	     -3.34265098	     29.45914335	     29.45914335	     17.80726072	    -15.35282246	      5.69390681	    -10.10515458	      5.02287014	      1.70091479	     27.85920840	    -14.28873632	    -13.30058662	     37.67348262	     44.58584320	      0.00000000	      0.00000000	     11.75708726	    -15.92325001	      7.33667624	     46.12566597	     45.30564507	      0.00000000	      0.00000000
     36.48871429	     -2.48146051	     -4.24874238	     -1.88547195	      0.94655820	      0.92143836	      0.45142466	     19.38872383	     -7.14427304	     -7.78017902	     61.07946490	     61.07946490	      8.46870162	    -18.46884436	      6.82190464	     16.40494399	     -2.42429394	     -3.55571690	     30.11713323	     30.11713323	     18.49481822	    -15.89346732	      5.67955848	    -10.43105412	      5.23137383	      1.37188646	     24.81722267	    -13.90895632	    -13.01995993	     35.79110617	     44.65712658	      0.00000000	      0.00000000	     13.28447680	    -15.88204024	      7.18925021	     45.59261003	     45.36396392	      0.00000000	      0.00000000
     36.50807143	     -2.11094982	     -4.20021174	     -2.38909159	      0.94619299	      0.92029926	      0.44957868	     20.83150490	     -7.11525597	     -7.13931991	     62.51972099	     62.51972099	      9.25199194	    -18.48136173	      8.43471204	     15.85238719	     -2.23420900	     -3.76844570	     30.76443388	     30.76443388	     19.38635787	    -16.28467684	      6.22522055	    -10.80227301	      5.48289935	      1.28450475	     21.85051724	    -13.74005499	    -12.58302635	     33.32009861	     44.79704512	      0.00000000	      0.00000000	     15.57777464	    -15.56253748	      7.21481730	     43.51218759	     45.44940185	      0.00000000	      0.00000000
     36.52742857	     -1.84677539	     -4.16823743	     -2.89839738	      0.94572402	      0.91910310	      0.44797674	     22.24683700	     -7.02066819	     -6.56139553	     63.42031356	     63.42031356	      9.50181019	    -18.54610427	      8.46266450	     15.37393849	     -2.07733215	     -4.00552241	     31.29409587	     31.29409587	     19.95931573	    -16.72353252	      6.18378886	    -11.14031184	      5.77361740	      1.02050270	     18.75455960	    -13.42107292	    -12.49902300	     31.70312947	     44.85465555	      0.00000000	      0.00000000	     16.88847204	    -15.67983702	      7.00660070	     43.78695427	     45.50307829	      0.00000000	      0.00000000
     36.54678571	     -1.61373583	     -4.20456005	     -3.38898904	      0.94515152	      0.91822049	      0.44675379	     23.55086853	     -6.74856116	     -6.03299008	     63.77642761	     63.77642761	      9.96574163	    -18.51168400	      9.37120708	     14.87875590	     -1.99515220	     -4.18632428	     31.73125121	     31.73125121	     20.85555939	    -17.00155456	      6.93019132	    -11.43790191	      6.09149448	      1.12405321	     15.75876539	    -13.28746314	    -12.44030068	     29.37659009	     45.02044436	      0.00000000	      0.00000000	     19.04455017	    -15.36847882	      6.88742283	     42.39042500	     45.59940774	      0.00000000	      0.00000000
     36.56614286	     -1.45735825	     -4.26081991	     -3.88487151	      0.94446731	      0.91758249	      0.44592096	     24.75435590	     -6.41997494	     -5.62778734	     63.49879411	     63.49879411	     10.08349611	    -18.48743349	      9.33908061	     14.36413559	     -1.97427672	     -4.44806433	     31.92865916	     31.92865916	     21.34609971	    -17.27519810	      6.99037596	    -11.72982675	      6.43404776	      1.04969928	     12.74882408	    -13.03503516	    -12.45004971	     27.82631756	     45.08938950	      0.00000000	      0.00000000	     20.35294187	    -15.46642407	      6.59836912	     42.94453327	     45.66537792	      0.00000000	      0.00000000
